<svg preserveAspectRatio="none" width="100%" height="100%" overflow="visible" style="display: block;" viewBox="0 0 24 24" fill="none" xmlns="http://www.w3.org/2000/svg">
<g id="icons8_multiple_devices_1 1">
<path id="Vector" d="M4 4C2.90694 4 2 4.90694 2 6V16C2 17.0931 2.90694 18 4 18H0V20H13V18V16H4V6H20H22C22 4.90694 21.0931 4 20 4H4ZM17 8C15.897 8 15 8.897 15 10V20C15 21.103 15.897 22 17 22H22C23.103 22 24 21.103 24 20V10C24 8.897 23.103 8 22 8H17ZM17 10H22V19H17V10Z" fill="var(--fill-0, white)"/>
</g>
</svg>
