<svg preserveAspectRatio="none" width="100%" height="100%" overflow="visible" style="display: block;" viewBox="0 0 91 16" fill="none" xmlns="http://www.w3.org/2000/svg">
<g id="Frame 7706">
<path id="Vector" d="M57.2437 5.14968C55.3 5.14559 53.7296 3.98124 53.7419 2.55473C53.7542 1.15075 55.3574 -0.00437804 57.2765 0.0079106C59.2243 0.0191752 60.8132 1.1825 60.808 2.59262C60.8039 3.9966 59.1905 5.1548 57.2437 5.14968Z" fill="var(--fill-0, #EB7353)"/>
<path id="Vector_2" d="M45.6801 4.60938C41.3003 4.60938 37.7493 7.15312 37.7493 10.2918C37.7493 13.4306 41.3003 15.9743 45.6801 15.9743C50.0599 15.9743 53.6109 13.4306 53.6109 10.2918C53.6109 7.15312 50.0599 4.60938 45.6801 4.60938ZM45.6534 12.8632C44.0287 12.8581 42.7158 11.6958 42.727 10.2673C42.7363 8.86432 44.0769 7.70918 45.6821 7.72045C47.3099 7.73274 48.6392 8.89606 48.6341 10.3062C48.631 11.7091 47.2812 12.8663 45.6534 12.8632Z" fill="var(--fill-0, #EB7353)"/>
<path id="Vector_3" d="M33.8446 4.64823C32.1419 4.48746 30.7613 5.12647 29.7613 6.469C29.1366 7.30872 28.6658 8.26212 28.1263 9.16431C28.0565 9.28003 27.9919 9.39882 27.9242 9.51658C27.9017 9.50941 27.8791 9.50224 27.8565 9.49508C27.8565 5.06605 27.8565 4.91244 27.8565 0.484434C26.0318 0.484434 24.2399 0.484434 22.4531 0.484434C22.4531 6.90627 22.4531 9.02811 22.4531 15.4233C22.5023 15.4315 22.529 15.4407 22.5567 15.4407C24.007 15.4418 25.4574 15.4469 26.9067 15.4336C27.0093 15.4325 27.1488 15.3107 27.2052 15.2093C28.193 13.4356 29.1684 11.6548 30.151 9.87807C30.2372 9.72242 30.3203 9.54628 30.4536 9.44183C30.5777 9.34454 30.7983 9.2493 30.9193 9.29743C31.0732 9.35785 31.1829 9.55447 31.2824 9.71218C31.3255 9.78079 31.2947 9.89548 31.2947 9.98969C31.2947 11.6825 31.2947 13.3742 31.2947 15.0669C31.2947 15.1786 31.2947 15.2902 31.2947 15.4202C33.1256 15.4202 34.9165 15.4202 36.7023 15.4202C36.7135 15.3772 36.7217 15.3598 36.7217 15.3414C36.7207 12.7751 36.7474 10.2078 36.7053 7.64154C36.6807 6.1495 35.3288 4.78955 33.8446 4.64823Z" fill="var(--fill-0, #EB7353)"/>
<path id="Vector_4" d="M17.7693 9.9898C17.0605 10.6247 16.4348 11.1306 15.6851 11.5351C13.2213 12.8643 10.1678 12.4393 8.58303 10.5448C7.42193 9.15622 7.25166 7.70309 8.063 6.10249C8.58919 5.06308 9.48976 4.32883 10.7391 3.92126C12.5474 3.3314 14.2993 3.53621 15.9446 4.53262C16.4256 4.82345 16.8441 5.16958 17.2872 5.53517C17.4842 5.69697 17.6872 5.86491 17.8955 6.02671C17.9508 6.06972 18.0032 6.1158 18.0298 6.13936L18.2893 6.35953L21.0341 4.42919L20.7121 4.0339C20.6782 3.99294 20.6505 3.95812 20.6218 3.92433C18.7253 1.71238 16.0389 0.421044 12.6356 0.0861787C9.46719 -0.228206 6.61777 0.318639 4.16632 1.7093C1.77744 3.06412 0.27067 5.11121 0.0337308 7.32623C-0.184746 9.35898 0.663518 11.3426 2.42056 12.9124C4.65046 14.9052 7.45475 15.9068 10.7832 15.9068C11.7699 15.9068 12.8028 15.8187 13.8808 15.6415C16.2461 15.2545 18.2401 14.2662 19.9766 12.6206C20.1623 12.4445 20.3367 12.2622 20.5059 12.086C20.5828 12.0062 20.6598 11.9263 20.7367 11.8464L21.0577 11.5177L18.2955 9.51259L17.7693 9.9898Z" fill="var(--fill-0, #EB7353)"/>
<path id="Vector_5" d="M74.2479 11.515C73.7248 11.8171 73.253 12.1314 72.7463 12.3741C71.4683 12.9875 70.1236 13.1975 68.7399 12.8165C67.7737 12.5513 67.0382 11.9686 66.7192 10.9794C66.3541 9.84678 66.8926 8.62201 68.0762 8.04137C69.6148 7.28664 71.1482 7.45971 72.6181 8.26564C73.1176 8.54008 73.572 8.89748 74.0797 9.23951C74.6233 8.5278 75.2459 7.71777 75.7598 7.02449C75.7598 7.02449 75.6757 6.94256 75.6234 6.89648C75.3413 6.64968 75.0634 6.38753 74.7454 6.19296C72.2181 4.64356 69.5051 4.24418 66.6361 4.96204C64.9735 5.37781 63.5149 6.15916 62.4123 7.51193C61.1435 9.06952 61.046 11.0521 62.161 12.7192C63.0051 13.9809 64.2103 14.7837 65.6043 15.2978C68.0732 16.2102 70.5605 16.1928 73.0355 15.2999C73.972 14.9619 74.8295 14.4796 75.5619 13.7904C75.7578 13.6061 75.8501 13.5344 75.8501 13.5344C75.526 13.1698 75.0018 12.4776 74.7013 12.0925C74.5474 11.8959 74.3926 11.7003 74.2479 11.515Z" fill="var(--fill-0, #EB7353)"/>
<path id="Vector_6" d="M54.5833 15.4286C56.3875 15.4286 58.1722 15.4286 59.9805 15.4286C59.9805 12.6452 59.9805 9.02211 59.9805 6.25C58.1743 6.25 56.3813 6.25 54.5833 6.25C54.5833 9.02826 54.5833 12.6575 54.5833 15.4286Z" fill="var(--fill-0, #EB7353)"/>
<path id="Vector_7" d="M89.8512 12.1165C89.6974 11.9198 89.5425 11.7232 89.3969 11.5389C88.8737 11.841 88.4019 12.1554 87.8962 12.3981C86.6172 13.0105 85.2735 13.2204 83.8898 12.8405C83.1513 12.6377 82.5492 12.2506 82.1635 11.6393L90.003 10.1062C90.6 9.97619 90.8 9.44881 90.7949 8.7033C90.7313 5.99775 86.8715 3.84211 81.7871 4.98496C80.1152 5.36079 78.6658 6.18208 77.5642 7.53485C76.2954 9.09244 76.1969 11.076 77.3119 12.7422C78.1561 14.0038 79.3623 14.8067 80.7552 15.3218C83.2241 16.2332 85.7125 16.2168 88.1865 15.3238C89.123 14.9859 89.9805 14.5035 90.7128 13.8143C90.9088 13.629 91 13.5583 91 13.5583C90.6759 13.1938 90.1528 12.5015 89.8512 12.1165ZM83.6221 7.34745C83.698 7.32185 83.7759 7.29829 83.8539 7.27884C83.8559 7.27679 83.857 7.27679 83.859 7.27781C83.8754 7.27372 83.8918 7.2686 83.9083 7.26553C84.3237 7.16414 84.7524 7.14571 85.1658 7.19487C85.2304 7.20203 85.295 7.21125 85.3586 7.22252C85.7976 7.2983 86.2151 7.44985 86.5792 7.65876C86.5813 7.65876 86.5823 7.65979 86.5843 7.66081C86.6961 7.7243 86.7987 7.80213 86.8849 7.88713C87.209 8.20253 87.3167 8.61113 86.8572 8.71456C86.7659 8.73504 86.2736 8.84666 86.2418 8.85281C86.0458 8.89377 85.8489 8.93473 85.653 8.97467C85.0119 9.1078 84.3709 9.2399 83.7298 9.372C83.5975 9.39965 83.4631 9.4273 83.3287 9.45495C83.0918 9.50411 82.8559 9.55326 82.62 9.60242C82.3769 9.65259 82.1348 9.70277 81.8938 9.75295C81.8938 9.75295 81.8938 9.75295 81.8927 9.75295C81.8856 9.70892 81.8784 9.65771 81.8732 9.60242C81.8712 9.5932 81.8702 9.58398 81.8702 9.57477V9.57067C81.8671 9.55326 81.8661 9.53585 81.864 9.51844C81.863 9.5082 81.863 9.49796 81.863 9.48772C81.862 9.47031 81.8609 9.4529 81.8599 9.43447C81.8589 9.42321 81.8589 9.41194 81.8589 9.39965C81.8558 9.27677 81.862 9.14364 81.8866 9.00949C81.9963 8.40837 82.5225 7.83183 83.2969 7.47853C83.3267 7.46419 83.3574 7.45088 83.3882 7.43757C83.4108 7.42733 83.4323 7.41811 83.4549 7.40992C83.4569 7.40889 83.458 7.40889 83.46 7.40787C83.5134 7.38739 83.5677 7.36588 83.6221 7.34745Z" fill="var(--fill-0, #EB7353)"/>
</g>
</svg>
