<svg preserveAspectRatio="none" width="100%" height="100%" overflow="visible" style="display: block;" viewBox="0 0 21.9974 19.9974" fill="none" xmlns="http://www.w3.org/2000/svg">
<g id="surface185">
<path id="Vector" d="M2 0C0.895833 0 0 0.895833 0 2V14C0 15.1042 0.895833 16 2 16H12.7292L10.7292 14H2V2H18V10.724L20 12.724V2C20 0.895833 19.1042 0 18 0H2ZM11 9V11.4427L17.2917 17.7344L19.7344 15.2865L13.4427 9H11ZM20.599 16.1563L18.1563 18.599L19.375 19.8177C19.6146 20.0573 20 20.0573 20.2396 19.8177L21.8177 18.2396C22.0573 18 22.0573 17.6146 21.8177 17.375L20.599 16.1563Z" fill="var(--fill-0, white)"/>
</g>
</svg>
