<svg preserveAspectRatio="none" width="100%" height="100%" overflow="visible" style="display: block;" viewBox="0 0 24 22" fill="none" xmlns="http://www.w3.org/2000/svg">
<g id="surface218">
<path id="Vector" d="M15.5 9.19792L16.4687 11.5313L18.8021 12.5L16.4687 13.4687L15.5 15.8021L14.5313 13.4687L12.1979 12.5L14.5313 11.5313L15.5 9.19792ZM15.5 4L13 10L7 12.5L13 15L15.5 21L18 15L24 12.5L18 10L15.5 4ZM4.125 6.875L5.5 11L6.875 6.875L11 5.5L6.875 4.125L5.5 0L4.125 4.125L0 5.5L4.125 6.875ZM6.375 17.625L5.5 15L4.625 17.625L2 18.5L4.625 19.375L5.5 22L6.375 19.375L9 18.5L6.375 17.625Z" fill="var(--fill-0, white)"/>
</g>
</svg>
